<svg width="16" height="16" viewBox="0 0 16 16" fill="none" xmlns="http://www.w3.org/2000/svg">
<path d="M11.3334 8.66664L8.66669 14.6666C8.13625 14.6666 7.62755 14.4559 7.25247 14.0809C6.8774 13.7058 6.66669 13.1971 6.66669 12.6666V9.99998H2.89335C2.70008 10.0022 2.50864 9.96231 2.33231 9.88316C2.15597 9.80402 1.99894 9.68749 1.87211 9.54163C1.74529 9.39578 1.65168 9.2241 1.59779 9.03848C1.5439 8.85286 1.53102 8.65774 1.56002 8.46664L2.48002 2.46664C2.52824 2.14871 2.68973 1.8589 2.93475 1.65064C3.17977 1.44237 3.4918 1.32967 3.81335 1.33331H11.3334M11.3334 8.66664V1.33331M11.3334 8.66664H13.1134C13.4907 8.67332 13.8573 8.54122 14.1436 8.29543C14.43 8.04964 14.6161 7.70727 14.6667 7.33331V2.66664C14.6161 2.29268 14.43 1.95031 14.1436 1.70452C13.8573 1.45873 13.4907 1.32664 13.1134 1.33331H11.3334" stroke="#ACACBE" stroke-linecap="round" stroke-linejoin="round"/>
</svg>
