<svg width="22" height="22" viewBox="0 0 22 22" fill="none" xmlns="http://www.w3.org/2000/svg">
<g clip-path="url(#clip0_101_36)">
<path d="M20.5549 8.98649C20.8043 8.24707 20.8905 7.46376 20.8079 6.6889C20.7253 5.91403 20.4756 5.16545 20.0757 4.49316C18.8592 2.40815 16.4141 1.33565 14.0261 1.83962C13.3649 1.11547 12.5219 0.575369 11.5816 0.27355C10.6413 -0.0282689 9.63698 -0.081176 8.66937 0.120142C7.70176 0.321461 6.80498 0.769917 6.0691 1.42047C5.33322 2.07103 4.78415 2.90078 4.47702 3.82639C3.70166 3.98294 2.96918 4.30063 2.32851 4.75823C1.68784 5.21583 1.15375 5.80281 0.761939 6.47993C-0.467826 8.56164 -0.188615 11.1874 1.45228 12.9733C1.20198 13.7124 1.11485 14.4955 1.19674 15.2704C1.27862 16.0453 1.52762 16.7941 1.92708 17.4666C3.14516 19.5523 5.5918 20.6247 7.98103 20.1201C8.50634 20.7025 9.15179 21.1679 9.8743 21.4852C10.5968 21.8025 11.3797 21.9643 12.1708 21.96C14.6184 21.9621 16.7869 20.4064 17.5345 18.1116C18.3098 17.9548 19.0421 17.637 19.6827 17.1794C20.3234 16.7218 20.8575 16.135 21.2495 15.458C22.4644 13.3801 22.1841 10.7685 20.5549 8.98649ZM12.1708 20.5228C11.1939 20.5243 10.2475 20.1872 9.49774 19.5704L9.62966 19.4968L14.07 16.9732C14.1806 16.9094 14.2723 16.8183 14.3363 16.709C14.4003 16.5998 14.4343 16.476 14.435 16.3498V10.1856L16.3123 11.2548C16.3311 11.2642 16.3441 11.2819 16.3475 11.3024V16.4104C16.3427 18.6796 14.4755 20.518 12.1708 20.5228ZM3.19328 16.7481C2.70333 15.9151 2.52741 14.9387 2.69648 13.9906L2.82831 14.0685L7.27317 16.5922C7.38314 16.6558 7.50835 16.6893 7.63587 16.6893C7.76338 16.6893 7.88859 16.6558 7.99856 16.5922L13.4282 13.5101V15.6442C13.4277 15.6553 13.4246 15.6661 13.4193 15.6758C13.414 15.6855 13.4065 15.694 13.3974 15.7005L8.89988 18.2545C6.90123 19.3882 4.34777 18.714 3.19328 16.7481ZM2.02376 7.22455C2.51712 6.38619 3.29583 5.74676 4.22204 5.41945V10.614C4.22037 10.7395 4.25294 10.8631 4.31635 10.972C4.37976 11.0809 4.47169 11.1711 4.58255 11.233L9.98578 14.3022L8.10848 15.3714C8.09833 15.3767 8.08701 15.3795 8.07552 15.3795C8.06403 15.3795 8.05272 15.3767 8.04256 15.3714L3.55379 12.8219C1.5591 11.6834 0.875033 9.17121 2.02376 7.20297V7.22455ZM17.4466 10.7526L12.0257 7.65312L13.8987 6.58824C13.9089 6.58293 13.9202 6.58015 13.9317 6.58015C13.9432 6.58015 13.9545 6.58293 13.9647 6.58824L18.4535 9.14227C19.1398 9.53219 19.6993 10.1063 20.0667 10.7976C20.4341 11.4889 20.5941 12.2688 20.5282 13.0463C20.4623 13.8238 20.1731 14.5668 19.6944 15.1885C19.2157 15.8102 18.5672 16.2851 17.8247 16.5575V11.3629C17.8209 11.2376 17.784 11.1155 17.7177 11.0085C17.6514 10.9015 17.558 10.8133 17.4466 10.7526ZM19.3151 7.98651L19.1832 7.90849L14.7471 5.36318C14.6365 5.29925 14.5105 5.26555 14.3823 5.26555C14.254 5.26555 14.128 5.29925 14.0174 5.36318L8.59205 8.44538V6.31129C8.59089 6.30044 8.59274 6.28949 8.59738 6.27958C8.60202 6.26968 8.6093 6.26119 8.61843 6.25502L13.1072 3.70531C13.7952 3.31508 14.5817 3.1258 15.375 3.15958C16.1682 3.19336 16.9352 3.44882 17.5864 3.89608C18.2375 4.34334 18.7459 4.96391 19.052 5.6852C19.3581 6.4065 19.4494 7.1987 19.315 7.96916V7.98651H19.3151ZM7.56776 11.7698L5.69046 10.7049C5.68107 10.6994 5.67305 10.6918 5.66696 10.6828C5.66087 10.6739 5.65687 10.6637 5.65522 10.653V5.55805C5.65626 4.77644 5.88326 4.01128 6.30969 3.35203C6.73611 2.69277 7.34433 2.16666 8.06324 1.83521C8.78214 1.50377 9.58203 1.38068 10.3694 1.48034C11.1567 1.58 11.899 1.89829 12.5093 2.398L12.3774 2.47162L7.93703 4.99527C7.82653 5.05909 7.73479 5.15012 7.67081 5.25941C7.60684 5.3687 7.57284 5.49249 7.57214 5.61863L7.56776 11.7699V11.7698ZM8.58767 9.60537L11.0058 8.23316L13.4282 9.60545V12.3499L11.0145 13.7222L8.59214 12.3499L8.58767 9.60537Z" fill="white"/>
</g>
<defs>
<clipPath id="clip0_101_36">
<rect width="22" height="22" fill="white"/>
</clipPath>
</defs>
</svg>
