<svg width="16" height="16" viewBox="0 0 16 16" fill="none" xmlns="http://www.w3.org/2000/svg">
<path d="M10.6666 2.66669H12C12.3536 2.66669 12.6927 2.80716 12.9428 3.05721C13.1928 3.30726 13.3333 3.6464 13.3333 4.00002V13.3334C13.3333 13.687 13.1928 14.0261 12.9428 14.2762C12.6927 14.5262 12.3536 14.6667 12 14.6667H3.99996C3.64634 14.6667 3.3072 14.5262 3.05715 14.2762C2.8071 14.0261 2.66663 13.687 2.66663 13.3334V4.00002C2.66663 3.6464 2.8071 3.30726 3.05715 3.05721C3.3072 2.80716 3.64634 2.66669 3.99996 2.66669H5.33329" stroke="#ACACBE" stroke-linecap="round" stroke-linejoin="round"/>
<path d="M10 1.33331H6.00004C5.63185 1.33331 5.33337 1.63179 5.33337 1.99998V3.33331C5.33337 3.7015 5.63185 3.99998 6.00004 3.99998H10C10.3682 3.99998 10.6667 3.7015 10.6667 3.33331V1.99998C10.6667 1.63179 10.3682 1.33331 10 1.33331Z" stroke="#ACACBE" stroke-linecap="round" stroke-linejoin="round"/>
</svg>
