<svg width="16" height="16" viewBox="0 0 16 16" fill="none" xmlns="http://www.w3.org/2000/svg">
<path d="M4.66671 7.33331L7.33337 1.33331C7.86381 1.33331 8.37252 1.54403 8.74759 1.9191C9.12266 2.29417 9.33337 2.80288 9.33337 3.33331V5.99998H13.1067C13.3 5.99779 13.4914 6.03765 13.6678 6.11679C13.8441 6.19593 14.0011 6.31247 14.1279 6.45832C14.2548 6.60418 14.3484 6.77586 14.4023 6.96148C14.4562 7.1471 14.469 7.34222 14.44 7.53331L13.52 13.5333C13.4718 13.8513 13.3103 14.1411 13.0653 14.3493C12.8203 14.5576 12.5083 14.6703 12.1867 14.6666H4.66671M4.66671 7.33331V14.6666M4.66671 7.33331H2.66671C2.31309 7.33331 1.97395 7.47379 1.7239 7.72384C1.47385 7.97389 1.33337 8.31302 1.33337 8.66665V13.3333C1.33337 13.6869 1.47385 14.0261 1.7239 14.2761C1.97395 14.5262 2.31309 14.6666 2.66671 14.6666H4.66671" stroke="#ACACBE" stroke-linecap="round" stroke-linejoin="round"/>
</svg>
